<svg width="20" height="16" viewBox="0 0 20 16" fill="none" xmlns="http://www.w3.org/2000/svg">
<path fill-rule="evenodd" clip-rule="evenodd" d="M15.7952 0.0999756C16.9471 0.0999756 17.5344 0.213379 18.1456 0.54026C18.7098 0.842023 19.1581 1.29023 19.4598 1.85448C19.7616 2.41868 19.8814 2.96246 19.898 3.94877L19.9001 4.20483V11.7951L19.898 12.0512C19.8814 13.0375 19.7616 13.5813 19.4598 14.1455C19.1581 14.7097 18.7098 15.1579 18.1456 15.4597L18.0047 15.5314C17.4407 15.8033 16.8585 15.9 15.7952 15.9H4.20495C3.14167 15.9 2.5595 15.8033 1.99549 15.5314L1.8546 15.4597C1.29035 15.1579 0.842145 14.7097 0.540382 14.1455C0.238645 13.5813 0.118808 13.0375 0.102156 12.0512L0.100098 11.7951V4.20483C0.100098 3.05294 0.213501 2.46569 0.540382 1.85448C0.842145 1.29023 1.29035 0.842023 1.8546 0.54026C2.4188 0.238523 2.96258 0.118686 3.94889 0.102034L4.20495 0.0999756H15.7952ZM18.0991 5.89998L18.1001 11.7951C18.1001 12.6753 18.0409 12.9818 17.8725 13.2966C17.7385 13.5472 17.5473 13.7384 17.2967 13.8724C17.0061 14.0278 16.7226 14.0902 15.9884 14.0989L15.7952 14.1H4.20495L4.01176 14.0989C3.27759 14.0902 2.99406 14.0278 2.70348 13.8724C2.45291 13.7384 2.26165 13.5472 2.12765 13.2966C1.95929 12.9818 1.9001 12.6753 1.9001 11.7951L1.8991 5.89998H18.0991ZM4.20495 1.89998H15.7952L15.9884 1.90105C16.7226 1.90973 17.0061 1.97212 17.2967 2.12752C17.5473 2.26153 17.7385 2.45279 17.8725 2.70336C18.028 2.99394 18.0903 3.27747 18.099 4.01164L18.0981 4.09998H1.9001L1.90117 4.01164C1.90985 3.27747 1.97224 2.99394 2.12765 2.70336C2.26165 2.45279 2.45291 2.26153 2.70348 2.12752C3.01828 1.95917 3.3248 1.89998 4.20495 1.89998Z" fill="#328ABC"/>
<path d="M4.00009 10.8C4.00009 10.52 4.00009 10.38 4.05459 10.273C4.10253 10.1789 4.17902 10.1024 4.2731 10.0545C4.38005 10 4.52007 10 4.80009 10H5.20009C5.48012 10 5.62013 10 5.72709 10.0545C5.82117 10.1024 5.89766 10.1789 5.94559 10.273C6.00009 10.38 6.00009 10.52 6.00009 10.8V11.2C6.00009 11.48 6.00009 11.62 5.94559 11.727C5.89766 11.8211 5.82117 11.8976 5.72709 11.9455C5.62013 12 5.48012 12 5.20009 12H4.80009C4.52007 12 4.38005 12 4.2731 11.9455C4.17902 11.8976 4.10253 11.8211 4.05459 11.727C4.00009 11.62 4.00009 11.48 4.00009 11.2V10.8Z" fill="#328ABC"/>
</svg>
