<svg width="10" height="10" viewBox="0 0 10 10" fill="none" xmlns="http://www.w3.org/2000/svg">
<path d="M2.32628 9.16998L5.00003 7.76298L7.67378 9.16848C7.68614 9.17494 7.70006 9.17783 7.71397 9.17682C7.72788 9.17581 7.74124 9.17095 7.75253 9.16277C7.76383 9.15458 7.77262 9.14342 7.77792 9.13051C7.78322 9.11761 7.78482 9.10349 7.78253 9.08973L7.27253 6.11223L9.43478 4.00398C9.44467 3.99421 9.45166 3.98189 9.45495 3.96839C9.45825 3.95489 9.45773 3.94074 9.45345 3.92751C9.44918 3.91429 9.44131 3.90251 9.43073 3.8935C9.42015 3.88449 9.40727 3.8786 9.39353 3.87648L6.40403 3.44148L5.06753 0.733226C5.06139 0.720546 5.0518 0.709852 5.03986 0.702369C5.02793 0.694887 5.01412 0.690918 5.00003 0.690918C4.98594 0.690918 4.97214 0.694887 4.9602 0.702369C4.94826 0.709852 4.93867 0.720546 4.93253 0.733226L3.59603 3.44223L0.606532 3.87723C0.592796 3.87935 0.579919 3.88524 0.569338 3.89425C0.558757 3.90326 0.550889 3.91504 0.54661 3.92826C0.542332 3.94149 0.541812 3.95564 0.54511 3.96914C0.548407 3.98264 0.555391 3.99496 0.565282 4.00473L2.72753 6.11298L2.21678 9.09048C2.2145 9.10424 2.21609 9.11836 2.22139 9.13126C2.22669 9.14417 2.23548 9.15533 2.24678 9.16352C2.25808 9.1717 2.27143 9.17656 2.28534 9.17757C2.29926 9.17858 2.31317 9.17569 2.32553 9.16923L2.32628 9.16998Z" fill="black"/>
</svg>
