<svg width="33" height="10" viewBox="0 0 33 10" fill="none" xmlns="http://www.w3.org/2000/svg">
<path d="M17.0669 3.18406C17.0481 4.57153 18.3898 5.34574 19.4004 5.80611C20.4388 6.27839 20.7876 6.58129 20.7835 7.0037C20.7758 7.65008 19.9552 7.93538 19.1874 7.94647C17.8478 7.96586 17.0688 7.60839 16.4496 7.33803L15.967 9.44876C16.5883 9.71635 17.7387 9.94972 18.9316 9.95996C21.7319 9.95996 23.5639 8.66791 23.5738 6.66466C23.5848 4.12225 19.8116 3.98153 19.8374 2.84514C19.8463 2.50056 20.198 2.13285 20.9688 2.03936C21.3504 1.99213 22.4036 1.95599 23.5977 2.46996L24.0663 0.427793C23.4242 0.209238 22.5989 -3.91006e-05 21.5713 -3.91006e-05C18.9356 -3.91006e-05 17.0819 1.3096 17.0669 3.18406ZM28.5697 0.175864C28.0584 0.175864 27.6275 0.454659 27.4352 0.88249L23.4351 9.80996H26.2333L26.7902 8.37153H30.2095L30.5325 9.80996H32.9988L30.8467 0.175864H28.5697ZM28.9612 2.77839L29.7687 6.39611H27.5571L28.9612 2.77839ZM13.6742 0.175984L11.4686 9.80984H14.135L16.3397 0.175744H13.6742M9.72963 0.175744L6.95424 6.73321L5.83156 1.15767C5.69983 0.535262 5.1796 0.175864 4.60189 0.175864H0.0650106L0.00146484 0.455624C0.932867 0.644539 1.9911 0.949238 2.63223 1.27526C3.02459 1.47442 3.13647 1.64851 3.26537 2.12177L5.39177 9.80996H8.20956L12.5296 0.175864H9.72963" fill="url(#paint0_linear_12_282)"/>
<defs>
<linearGradient id="paint0_linear_12_282" x1="15.1717" y1="10.1598" x2="15.4412" y2="-0.0703329" gradientUnits="userSpaceOnUse">
<stop stop-color="#222357"/>
<stop offset="1" stop-color="#254AA5"/>
</linearGradient>
</defs>
</svg>
